<?xml version="1.0" standalone="no"?>
<!DOCTYPE svg PUBLIC "-//W3C//DTD SVG 20010904//EN"
 "http://www.w3.org/TR/2001/REC-SVG-20010904/DTD/svg10.dtd">
<svg version="1.0" xmlns="http://www.w3.org/2000/svg"
 width="1024.000000pt" height="1024.000000pt" viewBox="0 0 1024.000000 1024.000000"
 preserveAspectRatio="xMidYMid meet">
<metadata>
Created by potrace 1.16, written by Peter Selinger 2001-2019
</metadata>
<g transform="translate(0.000000,1024.000000) scale(0.100000,-0.100000)"
fill="#000000" stroke="none">
<path d="M3799 9720 c-126 -20 -258 -80 -362 -165 -107 -87 -211 -255 -243
-392 -22 -97 -20 -267 6 -368 61 -242 239 -443 462 -522 l78 -28 0 -176 0
-176 -61 -17 c-134 -37 -283 -130 -390 -243 -368 -390 -320 -998 104 -1319 71
-54 217 -126 295 -145 l52 -13 0 -172 0 -172 -62 -21 c-132 -45 -270 -148
-352 -265 -102 -144 -140 -264 -140 -441 0 -145 16 -213 80 -344 39 -78 62
-110 133 -181 144 -146 286 -208 491 -217 138 -6 252 17 366 73 297 146 457
486 388 822 -44 215 -187 405 -379 504 -49 25 -109 52 -132 59 l-43 12 0 167
0 167 66 18 c84 23 212 84 290 140 33 24 93 79 133 121 l73 78 56 -31 c31 -18
151 -85 266 -150 l209 -118 3 -102 c5 -146 25 -232 85 -352 44 -89 65 -118
138 -191 136 -137 275 -206 466 -230 163 -21 344 16 490 102 85 50 226 190
274 271 78 132 119 312 107 465 -8 105 -52 241 -108 337 -53 90 -183 220 -273
273 -178 104 -390 135 -594 87 -148 -35 -325 -148 -420 -269 -24 -31 -47 -56
-50 -56 -4 0 -116 62 -251 139 l-244 139 -1 178 c-1 99 -4 186 -9 196 -6 13
35 40 232 152 132 75 246 138 253 140 9 3 30 -16 54 -50 77 -105 235 -220 363
-265 385 -135 788 23 966 378 127 253 109 551 -49 788 -81 122 -177 204 -318
270 -120 57 -184 70 -342 69 -131 0 -146 -2 -235 -33 -322 -110 -520 -374
-534 -713 l-4 -99 -264 -149 -263 -149 -24 32 c-50 65 -151 158 -226 206 -79
52 -147 82 -253 109 l-62 17 2 174 3 174 52 18 c115 39 195 90 293 189 158
157 222 310 222 530 0 217 -64 374 -217 526 -76 77 -106 98 -185 137 -52 26
-122 54 -155 62 -74 19 -231 27 -306 15z m294 -373 c89 -44 146 -102 191 -197
29 -60 31 -73 31 -170 0 -97 -2 -110 -31 -170 -69 -144 -192 -229 -343 -238
-172 -10 -327 82 -400 237 -23 50 -26 68 -26 166 0 103 2 114 32 177 51 108
140 185 258 225 24 8 74 12 127 10 76 -3 95 -7 161 -40z m2051 -1040 c173 -80
264 -235 254 -434 -6 -117 -43 -200 -125 -282 -66 -65 -115 -94 -200 -116
-157 -41 -317 7 -430 129 -62 66 -94 130 -113 220 -42 205 91 429 296 497 90
29 238 23 318 -14z m-2102 -758 c235 -49 418 -278 418 -524 0 -234 -146 -437
-372 -517 -90 -32 -246 -32 -339 0 -116 40 -210 112 -276 210 -207 313 -46
727 322 827 62 17 177 19 247 4z m2047 -1018 c122 -38 215 -120 273 -240 28
-57 33 -80 36 -163 4 -80 1 -107 -18 -162 -86 -260 -379 -379 -624 -254 -56
29 -148 119 -179 176 -93 172 -68 372 65 518 115 125 289 174 447 125z m-1999
-1077 c83 -39 150 -106 192 -192 31 -63 33 -72 33 -177 0 -103 -2 -114 -32
-177 -59 -125 -171 -208 -305 -227 -223 -31 -418 110 -459 333 -35 188 84 387
274 457 81 30 212 23 297 -17z"/>
<path d="M2322 9110 c-257 -68 -436 -278 -472 -555 -5 -38 -10 -312 -10 -607
0 -527 0 -539 -22 -605 -38 -117 -136 -190 -277 -209 l-51 -7 0 -148 0 -149
28 -6 c167 -37 238 -87 294 -210 23 -49 23 -52 29 -634 6 -655 4 -634 82 -785
54 -105 173 -226 268 -272 106 -51 169 -64 342 -70 l157 -6 0 145 0 145 -133
10 c-151 11 -213 33 -285 98 -49 43 -73 81 -98 150 -17 45 -19 104 -24 640 -6
581 -6 591 -29 651 -32 89 -98 182 -169 238 -61 49 -61 50 -39 64 38 26 118
105 148 149 17 24 42 73 57 110 l27 68 5 615 c5 557 7 620 24 665 24 69 63
123 119 165 74 56 135 74 272 80 l120 5 3 143 3 142 -148 -1 c-112 0 -166 -5
-221 -19z"/>
<path d="M7550 8986 l0 -146 108 0 c170 0 258 -33 345 -130 84 -93 80 -66 87
-750 7 -667 6 -658 73 -784 34 -64 121 -157 171 -183 l31 -16 -25 -15 c-49
-31 -149 -140 -175 -193 -73 -143 -69 -101 -75 -754 l-5 -590 -31 -65 c-37
-77 -99 -141 -170 -176 -52 -25 -169 -43 -281 -44 l-53 0 0 -146 0 -147 158 6
c172 6 238 20 336 69 160 81 264 201 327 378 23 64 23 72 29 650 7 635 6 625
65 725 14 25 45 59 67 75 50 37 138 70 183 70 l35 0 0 153 0 154 -66 12 c-129
24 -222 96 -259 203 -18 49 -19 101 -25 668 l-5 615 -27 73 c-71 196 -218 342
-408 404 -53 17 -96 22 -237 26 l-173 4 0 -146z"/>
<path d="M5443 4255 c-291 -53 -524 -232 -639 -491 -65 -148 -94 -299 -94
-493 0 -225 34 -382 118 -545 113 -219 269 -349 509 -423 81 -25 102 -27 268
-27 192 -1 239 7 367 58 175 71 331 218 402 377 20 47 56 179 56 208 0 7 -63
11 -188 11 l-188 0 -28 -66 c-129 -296 -545 -350 -774 -100 -49 54 -103 160
-129 256 -14 50 -18 104 -18 240 0 153 3 185 23 255 36 125 78 202 152 276
110 111 230 156 395 146 76 -5 100 -11 161 -42 88 -43 150 -108 190 -200 l28
-65 190 0 189 0 -7 53 c-10 75 -52 193 -92 258 -42 69 -152 175 -225 216 -75
43 -185 81 -286 98 -103 18 -281 18 -380 0z"/>
<path d="M6660 3271 l0 -959 190 -2 190 -1 0 354 0 354 268 6 c226 4 279 8
345 26 201 53 347 187 414 377 24 70 27 93 27 204 0 108 -4 136 -27 206 -64
192 -190 310 -394 366 -74 21 -103 22 -545 26 l-468 3 0 -960z m891 616 c60
-23 114 -69 142 -120 18 -34 22 -58 22 -132 0 -105 -18 -148 -84 -208 -62 -56
-113 -66 -368 -74 l-223 -6 0 282 0 283 233 -4 c187 -4 241 -8 278 -21z"/>
<path d="M2260 3265 l0 -955 178 2 177 3 0 708 c0 389 3 707 6 707 4 0 9 -10
12 -22 4 -12 129 -320 279 -685 l273 -663 146 0 146 0 278 673 c153 369 282
676 287 682 4 5 8 -309 8 -698 l0 -707 185 0 185 0 0 955 0 955 -263 0 -262 0
-99 -242 c-189 -464 -448 -1093 -455 -1106 -6 -10 -203 466 -505 1220 l-51
128 -262 0 -263 0 0 -955z"/>
<path d="M1506 1935 c-87 -31 -145 -123 -131 -209 13 -83 74 -128 215 -160
140 -32 177 -67 146 -140 -39 -93 -200 -85 -246 12 -14 30 -17 32 -77 32 -59
0 -63 -2 -63 -22 1 -37 35 -102 69 -131 71 -60 234 -76 327 -33 30 14 64 40
80 61 24 32 29 49 32 109 3 62 1 76 -20 106 -30 44 -85 75 -169 95 -119 29
-139 36 -159 57 -29 32 -26 74 9 109 61 61 209 30 211 -43 0 -15 10 -18 65
-18 l65 0 -7 33 c-13 68 -51 114 -115 142 -47 19 -178 19 -232 0z"/>
<path d="M2460 1610 l0 -340 60 0 60 0 0 168 c1 116 4 172 13 182 45 58 122
67 168 21 l29 -29 0 -171 0 -171 61 0 61 0 -4 188 c-4 219 -13 249 -89 290
-37 20 -54 23 -106 19 -39 -3 -75 -13 -97 -26 l-35 -22 -3 113 -3 113 -57 3
-58 3 0 -341z"/>
<path d="M5128 1944 c-5 -4 -8 -157 -8 -341 l0 -333 65 0 65 0 0 125 0 125 64
0 65 0 68 -125 68 -125 68 0 68 0 -15 28 c-8 15 -41 73 -75 130 -61 104 -69
122 -52 122 20 0 75 56 92 95 22 48 24 133 5 178 -7 18 -26 44 -42 59 -54 50
-95 60 -269 65 -88 3 -163 2 -167 -3z m331 -119 c35 -17 41 -32 41 -95 0 -42
-4 -52 -31 -74 -28 -24 -38 -26 -125 -26 l-94 0 0 105 0 105 90 0 c60 0 101
-5 119 -15z"/>
<path d="M7520 1835 l0 -75 -35 0 -35 0 0 -50 0 -50 34 0 34 0 4 -157 c3 -137
6 -162 23 -187 24 -35 71 -56 127 -56 78 0 88 7 88 55 l0 43 -47 -6 c-69 -7
-73 3 -73 172 l0 141 55 -3 55 -4 0 51 0 51 -55 0 -55 0 0 75 0 75 -60 0 -60
0 0 -75z"/>
<path d="M2054 1747 c-85 -41 -126 -117 -126 -237 -1 -92 22 -150 75 -197 44
-38 91 -53 172 -53 106 0 181 53 192 138 l6 42 -52 0 c-28 0 -51 -4 -51 -9 0
-5 -12 -23 -26 -40 -23 -28 -32 -31 -80 -31 -65 0 -96 24 -113 86 -34 123 18
224 116 224 39 0 50 -5 79 -35 28 -30 39 -35 80 -35 l47 0 -7 31 c-17 88 -78
131 -191 137 -58 2 -79 -1 -121 -21z"/>
<path d="M3120 1750 c-59 -28 -77 -46 -106 -102 -56 -110 -38 -249 42 -325 47
-45 93 -63 164 -63 94 0 169 41 196 107 21 49 18 53 -32 53 -38 0 -51 -5 -73
-29 -70 -75 -197 -36 -217 67 l-6 32 174 0 174 0 -7 69 c-12 134 -75 200 -196
208 -54 3 -77 0 -113 -17z m177 -105 c13 -14 23 -37 23 -51 l0 -24 -115 0
-115 0 11 27 c23 61 62 85 129 79 33 -3 50 -11 67 -31z"/>
<path d="M3694 1751 c-23 -10 -45 -24 -49 -31 -5 -8 -11 -4 -19 12 -9 18 -21
24 -59 26 l-47 3 0 -245 0 -246 60 0 60 0 0 173 c0 170 0 174 24 196 13 12 42
25 63 28 32 4 45 1 66 -18 l27 -24 1 -177 1 -178 58 0 59 0 3 175 c3 202 8
213 91 222 39 5 49 2 71 -20 26 -26 26 -26 26 -202 l0 -175 60 0 60 0 0 185
c0 205 -9 249 -61 286 -59 42 -167 34 -235 -17 l-32 -23 -18 21 c-44 49 -137
62 -210 29z"/>
<path d="M4444 1746 c-34 -18 -57 -38 -72 -65 -32 -57 -30 -61 38 -61 46 0 60
3 60 15 0 19 51 45 90 45 47 0 90 -26 90 -54 0 -35 -20 -46 -115 -61 -48 -8
-103 -22 -123 -32 -74 -36 -102 -123 -66 -199 42 -88 208 -100 291 -22 l23 21
0 -31 c0 -32 0 -32 53 -32 l53 0 -4 198 c-5 223 -9 241 -77 276 -28 14 -63 22
-115 24 -64 3 -82 0 -126 -22z m194 -353 c-18 -23 -71 -43 -110 -43 -49 0 -78
24 -78 65 0 43 23 60 103 74 32 6 66 15 75 20 15 9 17 3 20 -45 2 -35 -2 -62
-10 -71z"/>
<path d="M5830 1757 c-56 -18 -116 -86 -136 -153 -42 -146 24 -300 143 -333
130 -36 255 19 288 127 6 21 4 22 -43 22 -42 0 -52 -4 -66 -25 -23 -35 -86
-50 -139 -33 -45 15 -74 47 -83 96 l-6 32 172 0 173 0 -5 68 c-8 109 -50 171
-137 200 -41 15 -114 14 -161 -1z m161 -103 c11 -11 23 -34 28 -52 l10 -32
-120 0 -119 0 15 36 c8 20 15 38 15 40 0 2 12 10 28 19 36 21 117 14 143 -11z"/>
<path d="M6345 1758 c-83 -29 -131 -101 -142 -210 -15 -166 69 -273 215 -272
54 0 69 5 107 32 l45 32 0 -41 c0 -92 -47 -139 -141 -139 -45 0 -55 4 -86 35
-30 30 -41 35 -84 35 -45 0 -49 -2 -49 -24 0 -37 41 -89 91 -114 59 -29 130
-37 201 -23 72 15 117 46 146 99 30 53 38 184 27 425 l-7 168 -47 -3 c-42 -3
-46 -5 -51 -32 -5 -27 -6 -28 -20 -11 -38 46 -137 67 -205 43z m149 -102 c51
-21 66 -50 66 -127 0 -58 -4 -72 -26 -98 -53 -63 -152 -59 -187 9 -13 26 -17
51 -15 97 3 53 9 67 32 92 26 27 44 35 84 40 7 0 28 -5 46 -13z"/>
<path d="M7073 1745 c-82 -42 -111 -108 -78 -179 23 -48 70 -71 169 -85 42 -6
86 -15 96 -21 39 -21 33 -77 -10 -100 -33 -18 -105 -12 -134 11 -14 11 -26 27
-26 35 0 11 -15 14 -60 14 -65 0 -67 -3 -46 -53 29 -70 102 -107 211 -107 137
1 230 98 195 204 -20 60 -48 74 -223 107 -47 9 -60 15 -70 36 -10 23 -8 28 18
50 25 22 36 25 79 20 39 -3 55 -10 71 -32 20 -24 28 -26 71 -23 45 4 49 6 46
28 -7 68 -75 112 -181 117 -67 4 -82 1 -128 -22z"/>
<path d="M8033 1755 c-17 -7 -42 -28 -55 -45 l-23 -32 -5 39 -5 38 -52 3 -53
3 0 -245 0 -246 60 0 60 0 0 164 0 164 35 31 c30 26 44 31 85 31 l50 0 0 55 0
55 -32 0 c-18 -1 -47 -7 -65 -15z"/>
<path d="M6780 1515 l0 -245 60 0 60 0 0 245 0 245 -60 0 -60 0 0 -245z"/>
<path d="M8265 1522 c51 -132 95 -244 99 -250 8 -14 -16 -73 -38 -91 -9 -7
-36 -13 -61 -13 l-45 1 0 -48 c0 -54 8 -61 65 -61 68 0 122 35 155 101 10 19
55 141 100 270 45 129 88 251 96 272 21 56 20 58 -43 55 l-57 -3 -56 -174 -56
-175 -60 175 -61 174 -66 3 -65 3 93 -239z"/>
</g>
</svg>
